<?xml version="1.0" ?><svg id="satellite-tracking-online-internet-signal" style="enable-background:new 0 0 16 15;" version="1.1" viewBox="0 0 16 15" xml:space="preserve" xmlns="http://www.w3.org/2000/svg" xmlns:xlink="http://www.w3.org/1999/xlink"><path d="M2.5,14v-1.293l1.701-1.701c1.07,0.775,2.38,1.237,3.799,1.237c1.736,0,3.368-0.676,4.596-1.904l0.354-0.354l-2.92-2.92  C10.332,6.634,10.5,6.124,10.5,5.586C10.5,4.16,9.34,3,7.914,3C7.376,3,6.866,3.168,6.435,3.471L3.757,0.793L3.404,1.146  C2.176,2.375,1.5,4.007,1.5,5.743c0,1.805,0.741,3.439,1.932,4.618L1.5,12.293V14H0v1h16v-1H2.5z M7.914,4  C8.789,4,9.5,4.711,9.5,5.586c0,0.251-0.058,0.493-0.167,0.711L7.203,4.167C7.421,4.058,7.663,4,7.914,4z M2.5,5.743  c0-1.301,0.449-2.533,1.273-3.52L11.52,9.97c-0.986,0.824-2.219,1.273-3.52,1.273C4.967,11.243,2.5,8.775,2.5,5.743z"/><path d="M10.5,1c1.103,0,2,0.897,2,2c0,0.534-0.208,1.037-0.586,1.414l0.707,0.707C13.188,4.555,13.5,3.802,13.5,3  c0-1.654-1.346-3-3-3C9.698,0,8.945,0.312,8.379,0.879l0.707,0.707C9.463,1.208,9.966,1,10.5,1z"/></svg>